<mxfile host="Electron" modified="2022-01-24T10:23:38.651Z" agent="5.0 (Windows NT 10.0; Win64; x64) AppleWebKit/537.36 (KHTML, like Gecko) draw.io/15.7.3 Chrome/91.0.4472.164 Electron/13.6.1 Safari/537.36" etag="uCo-Oguu7lzij6ATUu7M" compressed="false" version="15.7.3" type="device">
  <diagram name="Zeichenblatt-1" id="Zeichenblatt-1">
    <mxGraphModel dx="1102" dy="875" grid="1" gridSize="10" guides="1" tooltips="1" connect="1" arrows="1" fold="1" page="1" pageScale="1" pageWidth="850" pageHeight="1100" math="0" shadow="0">
      <root>
        <mxCell id="0" />
        <mxCell id="1" value="Verbinder" parent="0" />
        <mxCell id="2" value="Einordnen" style="verticalAlign=top;align=left;fillColor=#d7e3bf;gradientColor=none;labelBackgroundColor=none;rounded=0;whiteSpace=wrap;" parent="1" vertex="1">
          <mxGeometry x="3140" y="780" width="540" height="197" as="geometry" />
        </mxCell>
        <mxCell id="4" value="Empfehlungen manipulieren" style="verticalAlign=middle;align=center;fillColor=#FFFFFF;gradientColor=none;labelBackgroundColor=none;rounded=0;whiteSpace=wrap;" parent="1" vertex="1">
          <mxGeometry x="1404" y="339" width="224" height="48" as="geometry" />
        </mxCell>
        <mxCell id="5" value="Aufdeckung privater Daten&#xa;(Vorlieben, Gewohnheiten)" style="verticalAlign=middle;align=center;fillColor=#FFFFFF;gradientColor=none;labelBackgroundColor=none;rounded=0;whiteSpace=wrap;" parent="1" vertex="1">
          <mxGeometry x="3156" y="339" width="180" height="48" as="geometry" />
        </mxCell>
        <mxCell id="7" value="Reputationsschaden Einzelperson" style="verticalAlign=middle;align=center;fillColor=#FFFFFF;gradientColor=none;labelBackgroundColor=none;rounded=1;whiteSpace=wrap;" parent="1" vertex="1">
          <mxGeometry x="2476" y="143" width="180" height="48" as="geometry" />
        </mxCell>
        <mxCell id="qvmEMtH3Tldis6OgkI8p-155" value="T" style="edgeStyle=none;rounded=0;orthogonalLoop=1;jettySize=auto;" parent="1" source="8" target="12" edge="1">
          <mxGeometry relative="1" as="geometry" />
        </mxCell>
        <mxCell id="qvmEMtH3Tldis6OgkI8p-156" value="D" style="edgeStyle=none;rounded=0;orthogonalLoop=1;jettySize=auto;" parent="1" source="8" target="11" edge="1">
          <mxGeometry relative="1" as="geometry" />
        </mxCell>
        <mxCell id="qvmEMtH3Tldis6OgkI8p-158" style="edgeStyle=none;rounded=0;orthogonalLoop=1;jettySize=auto;" parent="1" source="8" target="H8-0O90GaupJun0dLJcG-154" edge="1">
          <mxGeometry relative="1" as="geometry" />
        </mxCell>
        <mxCell id="8" value="Manipulation von Sensoren" style="verticalAlign=middle;align=center;fillColor=#FFFFFF;gradientColor=none;labelBackgroundColor=none;rounded=0;whiteSpace=wrap;" parent="1" vertex="1">
          <mxGeometry x="432" y="443" width="224" height="48" as="geometry" />
        </mxCell>
        <mxCell id="9" value="Kameras manipulieren" style="verticalAlign=middle;align=center;fillColor=#FFFFFF;gradientColor=none;labelBackgroundColor=none;rounded=0;whiteSpace=wrap;" parent="1" vertex="1">
          <mxGeometry x="707" y="610" width="120" height="35" as="geometry" />
        </mxCell>
        <mxCell id="qvmEMtH3Tldis6OgkI8p-154" style="edgeStyle=none;rounded=0;orthogonalLoop=1;jettySize=auto;" parent="1" source="10" target="14" edge="1">
          <mxGeometry relative="1" as="geometry" />
        </mxCell>
        <mxCell id="10" value="Persönliche Endgeräte manipulieren" style="verticalAlign=middle;align=center;fillColor=#FFFFFF;gradientColor=none;labelBackgroundColor=none;rounded=0;whiteSpace=wrap;" parent="1" vertex="1">
          <mxGeometry x="47" y="603" width="120" height="48" as="geometry" />
        </mxCell>
        <mxCell id="11" value="GNSS&#xa;Jamming" style="verticalAlign=middle;align=center;fillColor=#fee599;gradientColor=none;labelBackgroundColor=none;rounded=0;whiteSpace=wrap;" parent="1" vertex="1">
          <mxGeometry x="319" y="610" width="120" height="35" as="geometry" />
        </mxCell>
        <mxCell id="12" value="Manipulation von Lastsensoren" style="verticalAlign=middle;align=center;fillColor=#d7e3bf;gradientColor=none;labelBackgroundColor=none;rounded=0;whiteSpace=wrap;" parent="1" vertex="1">
          <mxGeometry x="187" y="610" width="120" height="35" as="geometry" />
        </mxCell>
        <mxCell id="13" value="Fahrgastzählung blockieren" style="verticalAlign=middle;align=center;fillColor=#d7e3bf;gradientColor=none;labelBackgroundColor=none;rounded=0;whiteSpace=wrap;" parent="1" vertex="1">
          <mxGeometry x="576" y="610" width="120" height="35" as="geometry" />
        </mxCell>
        <mxCell id="14" value="App manipulieren" style="verticalAlign=middle;align=center;fillColor=#fee599;gradientColor=none;labelBackgroundColor=none;rounded=0;whiteSpace=wrap;" parent="1" vertex="1">
          <mxGeometry x="47" y="695" width="120" height="25" as="geometry" />
        </mxCell>
        <mxCell id="15" value="Manipulation des Datenbestandes&#xa;(Digitaler Zwilling)" style="verticalAlign=middle;align=center;fillColor=#FFFFFF;gradientColor=none;labelBackgroundColor=none;rounded=0;whiteSpace=wrap;" parent="1" vertex="1">
          <mxGeometry x="1012" y="443" width="224" height="48" as="geometry" />
        </mxCell>
        <mxCell id="16" value="Manipulation KI-Modell" style="verticalAlign=middle;align=center;fillColor=#FFFFFF;gradientColor=none;labelBackgroundColor=none;rounded=0;whiteSpace=wrap;" parent="1" vertex="1">
          <mxGeometry x="1547" y="615" width="160" height="25" as="geometry" />
        </mxCell>
        <mxCell id="17" value="Manipulation der Übertragung" style="verticalAlign=middle;align=center;fillColor=#fee599;gradientColor=none;labelBackgroundColor=none;rounded=0;whiteSpace=wrap;" parent="1" vertex="1">
          <mxGeometry x="1632" y="443" width="224" height="48" as="geometry" />
        </mxCell>
        <mxCell id="18" value="Manipulation des Algorithmus" style="verticalAlign=middle;align=center;fillColor=#FFFFFF;gradientColor=none;labelBackgroundColor=none;rounded=0;whiteSpace=wrap;" parent="1" vertex="1">
          <mxGeometry x="1388" y="443" width="224" height="48" as="geometry" />
        </mxCell>
        <mxCell id="19" value="GNSS&#xa;Spoofing" style="verticalAlign=middle;align=center;fillColor=#fee599;gradientColor=none;labelBackgroundColor=none;rounded=0;whiteSpace=wrap;" parent="1" vertex="1">
          <mxGeometry x="447" y="610" width="120" height="35" as="geometry" />
        </mxCell>
        <mxCell id="20" value="Kommunikation abhören" style="verticalAlign=middle;align=center;fillColor=#FFFFFF;gradientColor=none;labelBackgroundColor=none;rounded=0;whiteSpace=wrap;" parent="1" vertex="1">
          <mxGeometry x="3236" y="450" width="160" height="35" as="geometry" />
        </mxCell>
        <mxCell id="21" value="Kommunikationswege abhören" style="verticalAlign=middle;align=center;fillColor=#fee599;gradientColor=none;labelBackgroundColor=none;rounded=0;whiteSpace=wrap;" parent="1" vertex="1">
          <mxGeometry x="3300" y="608" width="144" height="40" as="geometry" />
        </mxCell>
        <mxCell id="22" value="Persönliches Endgerät abhören" style="verticalAlign=middle;align=center;fillColor=#fee599;gradientColor=none;labelBackgroundColor=none;rounded=0;whiteSpace=wrap;" parent="1" vertex="1">
          <mxGeometry x="3548" y="610" width="144" height="35" as="geometry" />
        </mxCell>
        <mxCell id="qvmEMtH3Tldis6OgkI8p-153" style="edgeStyle=none;rounded=0;orthogonalLoop=1;jettySize=auto;" parent="1" source="23" target="42" edge="1">
          <mxGeometry relative="1" as="geometry" />
        </mxCell>
        <mxCell id="23" value="Verfügbarkeit des Dienstes beschränken" style="verticalAlign=middle;align=center;fillColor=#FFFFFF;gradientColor=none;labelBackgroundColor=none;rounded=0;whiteSpace=wrap;" parent="1" vertex="1">
          <mxGeometry x="2344" y="339" width="224" height="48" as="geometry" />
        </mxCell>
        <mxCell id="24" value="Verfügbarkeit des Datenbestandes beschränken" style="verticalAlign=middle;align=center;fillColor=#FFFFFF;gradientColor=none;labelBackgroundColor=none;rounded=0;whiteSpace=wrap;" parent="1" vertex="1">
          <mxGeometry x="1984" y="443" width="224" height="48" as="geometry" />
        </mxCell>
        <mxCell id="25" value="Verfügbarkeit des Algorithmus beschränken" style="verticalAlign=middle;align=center;fillColor=#FFFFFF;gradientColor=none;labelBackgroundColor=none;rounded=0;whiteSpace=wrap;" parent="1" vertex="1">
          <mxGeometry x="2336" y="443" width="224" height="48" as="geometry" />
        </mxCell>
        <mxCell id="26" value="Verfügbarkeit des Übertragungsnetzwerkes beschränken" style="verticalAlign=middle;align=center;fillColor=#FFFFFF;gradientColor=none;labelBackgroundColor=none;rounded=0;whiteSpace=wrap;" parent="1" vertex="1">
          <mxGeometry x="2616" y="443" width="224" height="48" as="geometry" />
        </mxCell>
        <mxCell id="27" value="Daten löschen" style="verticalAlign=middle;align=center;fillColor=#d7e3bf;gradientColor=none;labelBackgroundColor=none;rounded=0;whiteSpace=wrap;" parent="1" vertex="1">
          <mxGeometry x="1956" y="610" width="120" height="35" as="geometry" />
        </mxCell>
        <mxCell id="28" value="(D)DoS" style="verticalAlign=middle;align=center;fillColor=#fee599;gradientColor=none;labelBackgroundColor=none;rounded=0;whiteSpace=wrap;" parent="1" vertex="1">
          <mxGeometry x="2136" y="610" width="120" height="35" as="geometry" />
        </mxCell>
        <mxCell id="29" value="Datensätze korrelieren" style="verticalAlign=middle;align=center;fillColor=#d7e3bf;gradientColor=none;labelBackgroundColor=none;rounded=0;whiteSpace=wrap;" parent="1" vertex="1">
          <mxGeometry x="3486" y="450" width="160" height="35" as="geometry" />
        </mxCell>
        <mxCell id="30" value="Physische Manipulation" style="verticalAlign=middle;align=center;fillColor=#d7e3bf;gradientColor=none;labelBackgroundColor=none;rounded=0;whiteSpace=wrap;" parent="1" vertex="1">
          <mxGeometry x="751" y="701" width="130" height="35" as="geometry" />
        </mxCell>
        <mxCell id="31" value="Fernsteuerung übernehmen" style="verticalAlign=middle;align=center;fillColor=#d7e3bf;gradientColor=none;labelBackgroundColor=none;rounded=0;whiteSpace=wrap;" parent="1" vertex="1">
          <mxGeometry x="751" y="803" width="130" height="35" as="geometry" />
        </mxCell>
        <mxCell id="32" value="Bildsignal fälschen" style="verticalAlign=middle;align=center;fillColor=#d7e3bf;gradientColor=none;labelBackgroundColor=none;rounded=0;whiteSpace=wrap;" parent="1" vertex="1">
          <mxGeometry x="751" y="753" width="130" height="35" as="geometry" />
        </mxCell>
        <mxCell id="33" value="Steuerungssoftware manipulieren" style="verticalAlign=middle;align=center;fillColor=#d7e3bf;gradientColor=none;labelBackgroundColor=none;rounded=0;whiteSpace=wrap;" parent="1" vertex="1">
          <mxGeometry x="751" y="852" width="130" height="35" as="geometry" />
        </mxCell>
        <mxCell id="34" value="5G Jamming" style="verticalAlign=middle;align=center;fillColor=#fee599;gradientColor=none;labelBackgroundColor=none;rounded=0;whiteSpace=wrap;" parent="1" vertex="1">
          <mxGeometry x="2790" y="610" width="120" height="35" as="geometry" />
        </mxCell>
        <mxCell id="41" value="Ransomware einschleusen" style="verticalAlign=middle;align=center;fillColor=#d7e3bf;gradientColor=none;labelBackgroundColor=none;rounded=0;whiteSpace=wrap;" parent="1" vertex="1">
          <mxGeometry x="2932" y="610" width="144" height="35" as="geometry" />
        </mxCell>
        <mxCell id="42" value="Daten unlesbar machen" style="verticalAlign=middle;align=center;fillColor=#FFFFFF;gradientColor=none;labelBackgroundColor=none;rounded=0;whiteSpace=wrap;" parent="1" vertex="1">
          <mxGeometry x="2872" y="450" width="144" height="35" as="geometry" />
        </mxCell>
        <mxCell id="43" value="Daten ausleiten" style="verticalAlign=middle;align=center;fillColor=#FFFFFF;gradientColor=none;labelBackgroundColor=none;rounded=0;whiteSpace=wrap;" parent="1" vertex="1">
          <mxGeometry x="3072" y="450" width="144" height="35" as="geometry" />
        </mxCell>
        <object label="Verletzung von Gesetzen und Verordnungen" id="44">
          <ag_attributes />
          <ag_computed_attributes />
          <mxCell style="verticalAlign=middle;align=center;fillColor=#FFFFFF;gradientColor=none;labelBackgroundColor=none;rounded=1;whiteSpace=wrap;" parent="1" vertex="1">
            <mxGeometry x="3296" y="143" width="180" height="48" as="geometry" />
          </mxCell>
        </object>
        <mxCell id="45" value="Individuellem Nutzer nachstellen" style="verticalAlign=middle;align=center;fillColor=#FFFFFF;gradientColor=none;labelBackgroundColor=none;rounded=0;whiteSpace=wrap;" parent="1" vertex="1">
          <mxGeometry x="3356" y="339" width="180" height="48" as="geometry" />
        </mxCell>
        <mxCell id="46" value="Erpressung" style="verticalAlign=middle;align=center;fillColor=#FFFFFF;gradientColor=none;labelBackgroundColor=none;rounded=0;whiteSpace=wrap;" parent="1" vertex="1">
          <mxGeometry x="2996" y="346" width="144" height="35" as="geometry" />
        </mxCell>
        <mxCell id="47" value="Finanzieller Schaden&#xa;Betreiber" style="verticalAlign=middle;align=center;fillColor=#FFFFFF;gradientColor=none;labelBackgroundColor=none;rounded=1;whiteSpace=wrap;" parent="1" vertex="1">
          <mxGeometry x="3026" y="143" width="180" height="48" as="geometry" />
        </mxCell>
        <mxCell id="48" value="STOP" style="verticalAlign=middle;align=center;fillColor=#ff0000;gradientColor=none;shape=stencil(jZLBDoIwDIafpldSugPhjPgeJAy3ODcypuLbu9kYEBPY7W/7dfnbDkQzqW6UQDgF767yqfugQJyASFslvQ5RgWhBNIPz8uLd3fYcj10ik7q5R3ph5r4Ki6pMXYQvzuAnOjNstF3BVBdU58L4Ay6tGfBiKtNGiTtG/kfcxb/FTDNb/GDQg31HsVxq0Mbwodf17WVjin+FaN8=);strokeColor=#000000;labelBackgroundColor=none;rounded=0;whiteSpace=wrap;fontColor=#FFFFFF;" parent="1" vertex="1">
          <mxGeometry x="2083" y="611" width="33" height="33" as="geometry" />
        </mxCell>
        <mxCell id="49" value="STOP" style="verticalAlign=middle;align=center;fillColor=#ff0000;gradientColor=none;shape=stencil(jZLBDoIwDIafpldSugPhjPgeJAy3ODcypuLbu9kYEBPY7W/7dfnbDkQzqW6UQDgF767yqfugQJyASFslvQ5RgWhBNIPz8uLd3fYcj10ik7q5R3ph5r4Ki6pMXYQvzuAnOjNstF3BVBdU58L4Ay6tGfBiKtNGiTtG/kfcxb/FTDNb/GDQg31HsVxq0Mbwodf17WVjin+FaN8=);strokeColor=#000000;labelBackgroundColor=none;rounded=0;whiteSpace=wrap;fontColor=#FFFFFF;" parent="1" vertex="1">
          <mxGeometry x="2480" y="611" width="33" height="33" as="geometry" />
        </mxCell>
        <mxCell id="50" value="STOP" style="verticalAlign=middle;align=center;fillColor=#ff0000;gradientColor=none;shape=stencil(jZLBDoIwDIafpldSugPhjPgeJAy3ODcypuLbu9kYEBPY7W/7dfnbDkQzqW6UQDgF767yqfugQJyASFslvQ5RgWhBNIPz8uLd3fYcj10ik7q5R3ph5r4Ki6pMXYQvzuAnOjNstF3BVBdU58L4Ay6tGfBiKtNGiTtG/kfcxb/FTDNb/GDQg31HsVxq0Mbwodf17WVjin+FaN8=);strokeColor=#000000;labelBackgroundColor=none;rounded=0;whiteSpace=wrap;fontColor=#FFFFFF;" parent="1" vertex="1">
          <mxGeometry x="1903" y="611" width="33" height="33" as="geometry" />
        </mxCell>
        <mxCell id="51" value="STOP" style="verticalAlign=middle;align=center;fillColor=#ff0000;gradientColor=none;shape=stencil(jZLBDoIwDIafpldSugPhjPgeJAy3ODcypuLbu9kYEBPY7W/7dfnbDkQzqW6UQDgF767yqfugQJyASFslvQ5RgWhBNIPz8uLd3fYcj10ik7q5R3ph5r4Ki6pMXYQvzuAnOjNstF3BVBdU58L4Ay6tGfBiKtNGiTtG/kfcxb/FTDNb/GDQg31HsVxq0Mbwodf17WVjin+FaN8=);strokeColor=#000000;labelBackgroundColor=none;rounded=0;whiteSpace=wrap;fontColor=#FFFFFF;" parent="1" vertex="1">
          <mxGeometry x="2280" y="611" width="33" height="33" as="geometry" />
        </mxCell>
        <mxCell id="52" value="(D)DoS" style="verticalAlign=middle;align=center;fillColor=#fee599;gradientColor=none;labelBackgroundColor=none;rounded=0;whiteSpace=wrap;" parent="1" vertex="1">
          <mxGeometry x="2336" y="610" width="120" height="35" as="geometry" />
        </mxCell>
        <mxCell id="53" value="Reputationsschaden Betreiber" style="verticalAlign=middle;align=center;fillColor=#FFFFFF;gradientColor=none;labelBackgroundColor=none;rounded=1;whiteSpace=wrap;" parent="1" vertex="1">
          <mxGeometry x="1816" y="143" width="180" height="48" as="geometry" />
        </mxCell>
        <object label="Marktmanipulation&#xa;zum Schaden/Vorteil einer Gruppe" id="54">
          <ag_attributes />
          <ag_computed_attributes />
          <mxCell style="verticalAlign=middle;align=center;fillColor=#FFFFFF;gradientColor=none;labelBackgroundColor=none;rounded=1;whiteSpace=wrap;" parent="1" vertex="1">
            <mxGeometry x="1516" y="143" width="224" height="48" as="geometry" />
          </mxCell>
        </object>
        <mxCell id="55" value="Chaos schüren" style="verticalAlign=middle;align=center;fillColor=#FFFFFF;gradientColor=none;labelBackgroundColor=none;rounded=1;whiteSpace=wrap;" parent="1" vertex="1">
          <mxGeometry x="1385" y="143" width="111" height="48" as="geometry" />
        </mxCell>
        <mxCell id="56" value="Strafvereitelung" style="verticalAlign=middle;align=center;fillColor=#FFFFFF;gradientColor=none;labelBackgroundColor=none;rounded=1;whiteSpace=wrap;" parent="1" vertex="1">
          <mxGeometry x="1260" y="143" width="111" height="48" as="geometry" />
        </mxCell>
        <mxCell id="57" value="Legende" style="verticalAlign=top;align=left;fillColor=#f2f2f2;gradientColor=none;labelBackgroundColor=none;rounded=0;whiteSpace=wrap;" parent="1" vertex="1">
          <mxGeometry x="2426" y="750" width="620" height="302" as="geometry" />
        </mxCell>
        <mxCell id="58" value="Manipulation der Übertragung" style="verticalAlign=middle;align=center;fillColor=#fee599;gradientColor=none;labelBackgroundColor=none;rounded=0;whiteSpace=wrap;" parent="1" vertex="1">
          <mxGeometry x="2463" y="861" width="224" height="48" as="geometry" />
        </mxCell>
        <mxCell id="59" value="Teilbaum abschneiden" style="verticalAlign=middle;align=left;fillColor=none;gradientColor=none;strokeColor=none;labelBackgroundColor=none;rounded=0;whiteSpace=wrap;" parent="1" vertex="1">
          <mxGeometry x="2696" y="867" width="180" height="36" as="geometry" />
        </mxCell>
        <mxCell id="60" value="STOP" style="verticalAlign=middle;align=center;fillColor=#ff0000;gradientColor=none;shape=stencil(jZLBDoIwDIafpldSugPhjPgeJAy3ODcypuLbu9kYEBPY7W/7dfnbDkQzqW6UQDgF767yqfugQJyASFslvQ5RgWhBNIPz8uLd3fYcj10ik7q5R3ph5r4Ki6pMXYQvzuAnOjNstF3BVBdU58L4Ay6tGfBiKtNGiTtG/kfcxb/FTDNb/GDQg31HsVxq0Mbwodf17WVjin+FaN8=);strokeColor=#000000;labelBackgroundColor=none;rounded=0;whiteSpace=wrap;" parent="1" vertex="1">
          <mxGeometry x="2463" y="992" width="33" height="33" as="geometry" />
        </mxCell>
        <mxCell id="61" value="Keine Knoten für STRIDE-Kategorie gefunden" style="verticalAlign=middle;align=left;fillColor=none;gradientColor=none;strokeColor=none;labelBackgroundColor=none;rounded=0;whiteSpace=wrap;" parent="1" vertex="1">
          <mxGeometry x="2696" y="992" width="342" height="36" as="geometry" />
        </mxCell>
        <mxCell id="62" value="Reputationsschaden Betreiber" style="verticalAlign=middle;align=center;fillColor=#FFFFFF;gradientColor=none;labelBackgroundColor=none;rounded=1;whiteSpace=wrap;" parent="1" vertex="1">
          <mxGeometry x="2463" y="791" width="180" height="48" as="geometry" />
        </mxCell>
        <mxCell id="63" value="Schaden/Folge des Abuse-Cases" style="verticalAlign=middle;align=left;fillColor=none;gradientColor=none;strokeColor=none;labelBackgroundColor=none;rounded=0;whiteSpace=wrap;" parent="1" vertex="1">
          <mxGeometry x="2696" y="797" width="260" height="36" as="geometry" />
        </mxCell>
        <mxCell id="64" value="GNSS&#xa;Jamming" style="verticalAlign=middle;align=center;fillColor=#d7e3bf;gradientColor=none;labelBackgroundColor=none;rounded=0;whiteSpace=wrap;" parent="1" vertex="1">
          <mxGeometry x="2463" y="930" width="120" height="35" as="geometry" />
        </mxCell>
        <mxCell id="65" value="Elementarer Schritt" style="verticalAlign=middle;align=left;fillColor=none;gradientColor=none;strokeColor=none;labelBackgroundColor=none;rounded=0;whiteSpace=wrap;" parent="1" vertex="1">
          <mxGeometry x="2696" y="930" width="180" height="36" as="geometry" />
        </mxCell>
        <mxCell id="66" value="Einfügen und Ausnutzen von Backdoors" style="verticalAlign=middle;align=center;fillColor=#d7e3bf;gradientColor=none;labelBackgroundColor=none;rounded=0;whiteSpace=wrap;" parent="1" vertex="1">
          <mxGeometry x="1248" y="607" width="188" height="40" as="geometry" />
        </mxCell>
        <mxCell id="67" value="Ressourcen abschalten/zerstören/beschränken" style="verticalAlign=middle;align=center;fillColor=#fee599;gradientColor=none;labelBackgroundColor=none;rounded=0;whiteSpace=wrap;" parent="1" vertex="1">
          <mxGeometry x="2536" y="610" width="180" height="50" as="geometry" />
        </mxCell>
        <mxCell id="68" style="fillColor=#FFFFFF;gradientColor=none;strokeColor=none;labelBackgroundColor=none;rounded=0;whiteSpace=wrap;" parent="1" vertex="1">
          <mxGeometry x="2137" y="688" width="16" height="16" as="geometry" />
        </mxCell>
        <mxCell id="69" style="fillColor=#FFFFFF;gradientColor=none;strokeColor=none;labelBackgroundColor=none;rounded=0;whiteSpace=wrap;" parent="1" vertex="1">
          <mxGeometry x="2183" y="688" width="16" height="16" as="geometry" />
        </mxCell>
        <mxCell id="70" style="fillColor=#FFFFFF;gradientColor=none;strokeColor=none;labelBackgroundColor=none;rounded=0;whiteSpace=wrap;" parent="1" vertex="1">
          <mxGeometry x="2229" y="688" width="16" height="16" as="geometry" />
        </mxCell>
        <mxCell id="72" style="fillColor=#FFFFFF;gradientColor=none;strokeColor=none;labelBackgroundColor=none;rounded=0;whiteSpace=wrap;" parent="1" vertex="1">
          <mxGeometry x="2342" y="682" width="16" height="16" as="geometry" />
        </mxCell>
        <mxCell id="73" style="fillColor=#FFFFFF;gradientColor=none;strokeColor=none;labelBackgroundColor=none;rounded=0;whiteSpace=wrap;" parent="1" vertex="1">
          <mxGeometry x="2388" y="682" width="16" height="16" as="geometry" />
        </mxCell>
        <mxCell id="74" style="fillColor=#FFFFFF;gradientColor=none;strokeColor=none;labelBackgroundColor=none;rounded=0;whiteSpace=wrap;" parent="1" vertex="1">
          <mxGeometry x="2434" y="682" width="16" height="16" as="geometry" />
        </mxCell>
        <mxCell id="75" value="STOP" style="verticalAlign=middle;align=center;fillColor=#ff0000;gradientColor=none;shape=stencil(jZLBDoIwDIafpldSugPhjPgeJAy3ODcypuLbu9kYEBPY7W/7dfnbDkQzqW6UQDgF767yqfugQJyASFslvQ5RgWhBNIPz8uLd3fYcj10ik7q5R3ph5r4Ki6pMXYQvzuAnOjNstF3BVBdU58L4Ay6tGfBiKtNGiTtG/kfcxb/FTDNb/GDQg31HsVxq0Mbwodf17WVjin+FaN8=);strokeColor=#000000;labelBackgroundColor=none;rounded=0;whiteSpace=wrap;fontColor=#FFFFFF;" parent="1" vertex="1">
          <mxGeometry x="3486" y="611" width="33" height="33" as="geometry" />
        </mxCell>
        <mxCell id="76" value="Malware einschleusen" style="verticalAlign=middle;align=center;fillColor=#d7e3bf;gradientColor=none;labelBackgroundColor=none;rounded=0;whiteSpace=wrap;" parent="1" vertex="1">
          <mxGeometry x="3124" y="610" width="144" height="35" as="geometry" />
        </mxCell>
        <mxCell id="77" value="Trainingsdaten beeinflussen (Bias)" style="verticalAlign=middle;align=center;fillColor=#d7e3bf;gradientColor=none;labelBackgroundColor=none;rounded=0;whiteSpace=wrap;" parent="1" vertex="1">
          <mxGeometry x="1371" y="720" width="160" height="35" as="geometry" />
        </mxCell>
        <mxCell id="78" value="KI-Modell durch manipuliertes austauschen" style="verticalAlign=middle;align=center;fillColor=#d7e3bf;gradientColor=none;labelBackgroundColor=none;rounded=0;whiteSpace=wrap;" parent="1" vertex="1">
          <mxGeometry x="1563" y="720" width="176" height="35" as="geometry" />
        </mxCell>
        <mxCell id="79" value="Malware einschleusen" style="verticalAlign=middle;align=center;fillColor=#d7e3bf;gradientColor=none;labelBackgroundColor=none;rounded=0;whiteSpace=wrap;" parent="1" vertex="1">
          <mxGeometry x="1016" y="610" width="144" height="35" as="geometry" />
        </mxCell>
        <mxCell id="80" value="" style="edgeStyle=none;startArrow=none;endArrow=classic;startSize=9;endSize=9;spacingTop=0;spacingBottom=0;spacingLeft=0;spacingRight=0;verticalAlign=middle;labelBackgroundColor=#ffffff;rounded=0;align=center;exitX=0.4732142857142857;exitY=1.0208333333333333;exitDx=0;exitDy=0;exitPerimeter=0;entryX=0.5;entryY=0;entryDx=0;entryDy=0;entryPerimeter=0;" parent="1" source="15" target="79" edge="1">
          <mxGeometry relative="1" as="geometry">
            <mxPoint x="-1" as="offset" />
            <Array as="points" />
          </mxGeometry>
        </mxCell>
        <mxCell id="eVtNR8atQoOk0DHgdyy4-167" value="T" style="edgeLabel;align=center;verticalAlign=middle;resizable=0;points=[];" parent="80" vertex="1" connectable="0">
          <mxGeometry x="0.5473" y="-2" relative="1" as="geometry">
            <mxPoint as="offset" />
          </mxGeometry>
        </mxCell>
        <mxCell id="81" value="TRDE" style="edgeStyle=none;startArrow=none;endArrow=classic;startSize=9;endSize=9;spacingTop=0;spacingBottom=0;spacingLeft=0;spacingRight=0;verticalAlign=middle;labelBackgroundColor=#ffffff;rounded=0;align=center;exitX=0.63125;exitY=1;exitDx=0;exitDy=0;exitPerimeter=0;" parent="1" source="20" edge="1">
          <mxGeometry relative="1" as="geometry">
            <mxPoint as="offset" />
            <Array as="points" />
            <mxPoint x="3490" y="614" as="targetPoint" />
          </mxGeometry>
        </mxCell>
        <mxCell id="82" value="S" style="edgeStyle=none;startArrow=none;endArrow=classic;startSize=9;endSize=9;spacingTop=0;spacingBottom=0;spacingLeft=0;spacingRight=0;verticalAlign=middle;labelBackgroundColor=#ffffff;rounded=0;align=center;exitX=0.375;exitY=1.0208333333333333;exitDx=0;exitDy=0;exitPerimeter=0;entryX=0.7272727272727273;entryY=0;entryDx=0;entryDy=0;entryPerimeter=0;" parent="1" source="24" target="50" edge="1">
          <mxGeometry relative="1" as="geometry">
            <mxPoint x="-1" as="offset" />
            <Array as="points" />
          </mxGeometry>
        </mxCell>
        <mxCell id="83" style="edgeStyle=none;startArrow=none;endArrow=classic;startSize=9;endSize=9;spacingTop=0;spacingBottom=0;spacingLeft=0;spacingRight=0;verticalAlign=middle;labelBackgroundColor=#ffffff;rounded=0;exitX=0.4666666666666667;exitY=1.0208333333333333;exitDx=0;exitDy=0;exitPerimeter=0;entryX=0.5;entryY=0;entryDx=0;entryDy=0;entryPerimeter=0;" parent="1" source="47" target="46" edge="1">
          <mxGeometry relative="1" as="geometry">
            <mxPoint y="-1" as="offset" />
            <Array as="points" />
          </mxGeometry>
        </mxCell>
        <mxCell id="84" style="edgeStyle=none;startArrow=none;endArrow=classic;startSize=9;endSize=9;spacingTop=0;spacingBottom=0;spacingLeft=0;spacingRight=0;verticalAlign=middle;labelBackgroundColor=#ffffff;rounded=0;exitX=0;exitY=0.75;exitDx=0;exitDy=0;exitPerimeter=0;" parent="1" source="H8-0O90GaupJun0dLJcG-154" target="13" edge="1">
          <mxGeometry relative="1" as="geometry">
            <mxPoint x="-1" y="-1" as="offset" />
            <Array as="points" />
            <mxPoint x="561" y="590" as="sourcePoint" />
          </mxGeometry>
        </mxCell>
        <mxCell id="eVtNR8atQoOk0DHgdyy4-160" value="D" style="edgeLabel;align=center;verticalAlign=middle;resizable=0;points=[];" parent="84" vertex="1" connectable="0">
          <mxGeometry x="0.3651" y="3" relative="1" as="geometry">
            <mxPoint as="offset" />
          </mxGeometry>
        </mxCell>
        <mxCell id="85" value="S" style="edgeStyle=none;startArrow=none;endArrow=classic;startSize=9;endSize=9;spacingTop=0;spacingBottom=0;spacingLeft=0;spacingRight=0;verticalAlign=middle;labelBackgroundColor=#ffffff;rounded=0;exitX=0;exitY=0.25;exitDx=0;exitDy=0;exitPerimeter=0;" parent="1" source="H8-0O90GaupJun0dLJcG-154" target="19" edge="1">
          <mxGeometry relative="1" as="geometry">
            <mxPoint as="offset" />
            <Array as="points" />
            <mxPoint x="570" y="590" as="targetPoint" />
          </mxGeometry>
        </mxCell>
        <mxCell id="87" style="edgeStyle=none;startArrow=none;endArrow=classic;startSize=9;endSize=9;spacingTop=0;spacingBottom=0;spacingLeft=0;spacingRight=0;verticalAlign=middle;labelBackgroundColor=#ffffff;rounded=0;exitX=0;exitY=0.75;exitDx=0;exitDy=0;exitPerimeter=0;" parent="1" source="H8-0O90GaupJun0dLJcG-153" target="11" edge="1">
          <mxGeometry relative="1" as="geometry">
            <mxPoint x="-1" y="-1" as="offset" />
            <Array as="points" />
            <mxPoint x="370" y="590" as="sourcePoint" />
          </mxGeometry>
        </mxCell>
        <mxCell id="eVtNR8atQoOk0DHgdyy4-157" value="D" style="edgeLabel;align=center;verticalAlign=middle;resizable=0;points=[];" parent="87" vertex="1" connectable="0">
          <mxGeometry x="-0.2069" y="-2" relative="1" as="geometry">
            <mxPoint as="offset" />
          </mxGeometry>
        </mxCell>
        <mxCell id="88" style="edgeStyle=none;startArrow=none;endArrow=classic;startSize=9;endSize=9;spacingTop=0;spacingBottom=0;spacingLeft=0;spacingRight=0;verticalAlign=middle;labelBackgroundColor=#ffffff;rounded=0;exitX=0;exitY=0.25;exitDx=0;exitDy=0;exitPerimeter=0;" parent="1" source="H8-0O90GaupJun0dLJcG-153" target="12" edge="1">
          <mxGeometry relative="1" as="geometry">
            <mxPoint x="-1" as="offset" />
            <Array as="points" />
            <mxPoint x="260" y="590" as="sourcePoint" />
          </mxGeometry>
        </mxCell>
        <mxCell id="eVtNR8atQoOk0DHgdyy4-162" value="T" style="edgeLabel;align=center;verticalAlign=middle;resizable=0;points=[];" parent="88" vertex="1" connectable="0">
          <mxGeometry x="-0.1535" y="1" relative="1" as="geometry">
            <mxPoint as="offset" />
          </mxGeometry>
        </mxCell>
        <mxCell id="89" style="edgeStyle=none;startArrow=none;endArrow=classic;startSize=9;endSize=9;spacingTop=0;spacingBottom=0;spacingLeft=0;spacingRight=0;verticalAlign=middle;labelBackgroundColor=#ffffff;rounded=0;exitX=0.275;exitY=1;exitDx=0;exitDy=0;exitPerimeter=0;entryX=0;entryY=0.5142857142857142;entryDx=0;entryDy=0;entryPerimeter=0;" parent="1" source="9" target="30" edge="1">
          <mxGeometry relative="1" as="geometry">
            <mxPoint x="4" as="offset" />
            <Array as="points">
              <mxPoint x="740" y="718.57" />
            </Array>
          </mxGeometry>
        </mxCell>
        <mxCell id="90" style="edgeStyle=none;startArrow=none;endArrow=classic;startSize=9;endSize=9;spacingTop=0;spacingBottom=0;spacingLeft=0;spacingRight=0;verticalAlign=middle;labelBackgroundColor=#ffffff;rounded=0;exitX=0.6888888888888889;exitY=1.0208333333333333;exitDx=0;exitDy=0;exitPerimeter=0;entryX=0.5;entryY=0;entryDx=0;entryDy=0;entryPerimeter=0;" parent="1" source="45" target="29" edge="1">
          <mxGeometry relative="1" as="geometry">
            <mxPoint as="offset" />
            <Array as="points" />
          </mxGeometry>
        </mxCell>
        <mxCell id="91" style="edgeStyle=none;startArrow=none;endArrow=classic;startSize=9;endSize=9;spacingTop=0;spacingBottom=0;spacingLeft=0;spacingRight=0;verticalAlign=middle;labelBackgroundColor=#ffffff;rounded=0;entryX=0.39285714285714285;entryY=0;entryDx=0;entryDy=0;entryPerimeter=0;" parent="1" source="56" target="4" edge="1">
          <mxGeometry relative="1" as="geometry">
            <mxPoint x="-1" y="-1" as="offset" />
            <Array as="points" />
          </mxGeometry>
        </mxCell>
        <mxCell id="92" style="edgeStyle=none;startArrow=none;endArrow=classic;startSize=9;endSize=9;spacingTop=0;spacingBottom=0;spacingLeft=0;spacingRight=0;verticalAlign=middle;labelBackgroundColor=#ffffff;rounded=0;entryX=0.45982142857142855;entryY=0;entryDx=0;entryDy=0;entryPerimeter=0;" parent="1" source="55" target="4" edge="1">
          <mxGeometry relative="1" as="geometry">
            <mxPoint as="offset" />
            <Array as="points" />
          </mxGeometry>
        </mxCell>
        <mxCell id="93" style="edgeStyle=none;startArrow=none;endArrow=classic;startSize=9;endSize=9;spacingTop=0;spacingBottom=0;spacingLeft=0;spacingRight=0;verticalAlign=middle;labelBackgroundColor=#ffffff;rounded=0;entryX=0.5625;entryY=0;entryDx=0;entryDy=0;entryPerimeter=0;" parent="1" source="54" target="4" edge="1">
          <mxGeometry relative="1" as="geometry">
            <mxPoint x="-1" as="offset" />
            <Array as="points" />
          </mxGeometry>
        </mxCell>
        <mxCell id="94" style="edgeStyle=none;startArrow=none;endArrow=classic;startSize=9;endSize=9;spacingTop=0;spacingBottom=0;spacingLeft=0;spacingRight=0;verticalAlign=middle;labelBackgroundColor=#ffffff;rounded=0;exitX=0;exitY=0.75;exitDx=0;exitDy=0;exitPerimeter=0;entryX=1;entryY=0.2708333333333333;entryDx=0;entryDy=0;entryPerimeter=0;" parent="1" source="4" target="8" edge="1">
          <mxGeometry relative="1" as="geometry">
            <mxPoint x="-1" as="offset" />
            <Array as="points" />
          </mxGeometry>
        </mxCell>
        <mxCell id="95" style="edgeStyle=none;startArrow=none;endArrow=classic;startSize=9;endSize=9;spacingTop=0;spacingBottom=0;spacingLeft=0;spacingRight=0;verticalAlign=middle;labelBackgroundColor=#ffffff;rounded=0;entryX=1;entryY=0.5;entryDx=0;entryDy=0;entryPerimeter=0;" parent="1" source="8" target="H8-0O90GaupJun0dLJcG-153" edge="1">
          <mxGeometry relative="1" as="geometry">
            <mxPoint x="-1" as="offset" />
            <Array as="points" />
            <mxPoint x="380" y="500" as="sourcePoint" />
          </mxGeometry>
        </mxCell>
        <mxCell id="96" style="edgeStyle=none;startArrow=none;endArrow=classic;startSize=9;endSize=9;spacingTop=0;spacingBottom=0;spacingLeft=0;spacingRight=0;verticalAlign=middle;labelBackgroundColor=#ffffff;rounded=0;exitX=0.3;exitY=1.0208333333333333;exitDx=0;exitDy=0;exitPerimeter=0;entryX=0.5;entryY=0;entryDx=0;entryDy=0;entryPerimeter=0;" parent="1" source="45" target="20" edge="1">
          <mxGeometry relative="1" as="geometry">
            <mxPoint x="-1" as="offset" />
            <Array as="points" />
          </mxGeometry>
        </mxCell>
        <mxCell id="97" style="edgeStyle=none;startArrow=none;endArrow=classic;startSize=9;endSize=9;spacingTop=0;spacingBottom=0;spacingLeft=0;spacingRight=0;verticalAlign=middle;labelBackgroundColor=#ffffff;rounded=0;exitX=0.5625;exitY=1;exitDx=0;exitDy=0;exitPerimeter=0;entryX=0.42045454545454547;entryY=0;entryDx=0;entryDy=0;entryPerimeter=0;" parent="1" source="16" target="78" edge="1">
          <mxGeometry relative="1" as="geometry">
            <mxPoint x="-1" y="-1" as="offset" />
            <Array as="points" />
          </mxGeometry>
        </mxCell>
        <mxCell id="eVtNR8atQoOk0DHgdyy4-180" value="ST" style="edgeLabel;align=center;verticalAlign=middle;resizable=0;points=[];" parent="97" vertex="1" connectable="0">
          <mxGeometry x="-0.1733" y="-1" relative="1" as="geometry">
            <mxPoint as="offset" />
          </mxGeometry>
        </mxCell>
        <mxCell id="98" style="edgeStyle=none;startArrow=none;endArrow=classic;startSize=9;endSize=9;spacingTop=0;spacingBottom=0;spacingLeft=0;spacingRight=0;verticalAlign=middle;labelBackgroundColor=#ffffff;rounded=0;exitX=0.41875;exitY=1;exitDx=0;exitDy=0;exitPerimeter=0;entryX=0.60625;entryY=0;entryDx=0;entryDy=0;entryPerimeter=0;" parent="1" source="16" target="77" edge="1">
          <mxGeometry relative="1" as="geometry">
            <mxPoint y="-1" as="offset" />
            <Array as="points" />
          </mxGeometry>
        </mxCell>
        <mxCell id="eVtNR8atQoOk0DHgdyy4-178" value="T" style="edgeLabel;align=center;verticalAlign=middle;resizable=0;points=[];" parent="98" vertex="1" connectable="0">
          <mxGeometry x="0.2143" relative="1" as="geometry">
            <mxPoint as="offset" />
          </mxGeometry>
        </mxCell>
        <mxCell id="99" style="edgeStyle=none;startArrow=none;endArrow=classic;startSize=9;endSize=9;spacingTop=0;spacingBottom=0;spacingLeft=0;spacingRight=0;verticalAlign=middle;labelBackgroundColor=#ffffff;rounded=0;exitX=0.6473214285714286;exitY=1.0208333333333333;exitDx=0;exitDy=0;exitPerimeter=0;entryX=0.35106382978723405;entryY=0;entryDx=0;entryDy=0;entryPerimeter=0;" parent="1" source="15" target="66" edge="1">
          <mxGeometry relative="1" as="geometry">
            <mxPoint as="offset" />
            <Array as="points" />
          </mxGeometry>
        </mxCell>
        <mxCell id="eVtNR8atQoOk0DHgdyy4-168" value="TRE" style="edgeLabel;align=center;verticalAlign=middle;resizable=0;points=[];" parent="99" vertex="1" connectable="0">
          <mxGeometry x="-0.1151" y="-3" relative="1" as="geometry">
            <mxPoint as="offset" />
          </mxGeometry>
        </mxCell>
        <mxCell id="100" value="" style="edgeStyle=none;startArrow=none;endArrow=classic;startSize=9;endSize=9;spacingTop=0;spacingBottom=0;spacingLeft=0;spacingRight=0;verticalAlign=middle;labelBackgroundColor=#ffffff;rounded=0;align=center;exitX=1;exitY=1;exitDx=0;exitDy=0;exitPerimeter=0;entryX=0;entryY=0.05714285714285714;entryDx=0;entryDy=0;entryPerimeter=0;jumpStyle=arc;" parent="1" source="25" target="76" edge="1">
          <mxGeometry relative="1" as="geometry">
            <mxPoint as="offset" />
            <Array as="points">
              <mxPoint x="2762.07" y="534.22" />
              <mxPoint x="2984" y="581.69" />
              <mxPoint x="3031.01" y="591.75" />
            </Array>
          </mxGeometry>
        </mxCell>
        <mxCell id="eVtNR8atQoOk0DHgdyy4-197" value="T" style="edgeLabel;align=center;verticalAlign=middle;resizable=0;points=[];" parent="100" vertex="1" connectable="0">
          <mxGeometry x="-0.0978" y="1" relative="1" as="geometry">
            <mxPoint as="offset" />
          </mxGeometry>
        </mxCell>
        <mxCell id="101" value="" style="edgeStyle=none;startArrow=none;endArrow=classic;startSize=9;endSize=9;spacingTop=0;spacingBottom=0;spacingLeft=0;spacingRight=0;verticalAlign=middle;labelBackgroundColor=#ffffff;rounded=0;align=center;exitX=0.5416666666666666;exitY=1;exitDx=0;exitDy=0;exitPerimeter=0;entryX=0.4652777777777778;entryY=0;entryDx=0;entryDy=0;entryPerimeter=0;" parent="1" source="43" target="76" edge="1">
          <mxGeometry relative="1" as="geometry">
            <mxPoint x="-1" y="-1" as="offset" />
            <Array as="points" />
          </mxGeometry>
        </mxCell>
        <mxCell id="eVtNR8atQoOk0DHgdyy4-196" value="TI" style="edgeLabel;align=center;verticalAlign=middle;resizable=0;points=[];" parent="101" vertex="1" connectable="0">
          <mxGeometry x="-0.3634" y="1" relative="1" as="geometry">
            <mxPoint as="offset" />
          </mxGeometry>
        </mxCell>
        <mxCell id="102" value="" style="edgeStyle=none;dashed=1;startArrow=none;endArrow=classic;startSize=9;endSize=9;spacingTop=0;spacingBottom=0;spacingLeft=0;spacingRight=0;verticalAlign=middle;labelBackgroundColor=#ffffff;rounded=0;align=center;exitX=0.6083333333333333;exitY=1;exitDx=0;exitDy=0;exitPerimeter=0;entryX=0.125;entryY=0;entryDx=0;entryDy=0;entryPerimeter=0;" parent="1" source="52" target="74" edge="1">
          <mxGeometry relative="1" as="geometry">
            <mxPoint x="-1" y="-1" as="offset" />
            <Array as="points" />
          </mxGeometry>
        </mxCell>
        <mxCell id="103" value="" style="edgeStyle=none;dashed=1;startArrow=none;endArrow=classic;startSize=9;endSize=9;spacingTop=0;spacingBottom=0;spacingLeft=0;spacingRight=0;verticalAlign=middle;labelBackgroundColor=#ffffff;rounded=0;align=center;exitX=0.5;exitY=1;exitDx=0;exitDy=0;exitPerimeter=0;entryX=0.5;entryY=0;entryDx=0;entryDy=0;entryPerimeter=0;" parent="1" source="52" target="73" edge="1">
          <mxGeometry relative="1" as="geometry">
            <mxPoint x="-10" as="offset" />
            <Array as="points" />
          </mxGeometry>
        </mxCell>
        <mxCell id="104" value="" style="edgeStyle=none;dashed=1;startArrow=none;endArrow=classic;startSize=9;endSize=9;spacingTop=0;spacingBottom=0;spacingLeft=0;spacingRight=0;verticalAlign=middle;labelBackgroundColor=#ffffff;rounded=0;align=center;exitX=0.39166666666666666;exitY=1;exitDx=0;exitDy=0;exitPerimeter=0;entryX=0.875;entryY=0;entryDx=0;entryDy=0;entryPerimeter=0;" parent="1" source="52" target="72" edge="1">
          <mxGeometry relative="1" as="geometry">
            <mxPoint y="-1" as="offset" />
            <Array as="points" />
          </mxGeometry>
        </mxCell>
        <mxCell id="105" value="" style="edgeStyle=none;dashed=1;startArrow=none;endArrow=classic;startSize=9;endSize=9;spacingTop=0;spacingBottom=0;spacingLeft=0;spacingRight=0;verticalAlign=middle;labelBackgroundColor=#ffffff;rounded=0;align=center;exitX=0.5916666666666667;exitY=1;exitDx=0;exitDy=0;exitPerimeter=0;entryX=0.1875;entryY=0;entryDx=0;entryDy=0;entryPerimeter=0;" parent="1" source="28" target="70" edge="1">
          <mxGeometry relative="1" as="geometry">
            <mxPoint x="-1" y="-1" as="offset" />
            <Array as="points" />
          </mxGeometry>
        </mxCell>
        <mxCell id="106" value="" style="edgeStyle=none;dashed=1;startArrow=none;endArrow=classic;startSize=9;endSize=9;spacingTop=0;spacingBottom=0;spacingLeft=0;spacingRight=0;verticalAlign=middle;labelBackgroundColor=#ffffff;rounded=0;align=center;exitX=0.49166666666666664;exitY=1;exitDx=0;exitDy=0;exitPerimeter=0;entryX=0.5625;entryY=0;entryDx=0;entryDy=0;entryPerimeter=0;" parent="1" source="28" target="69" edge="1">
          <mxGeometry relative="1" as="geometry">
            <mxPoint x="-9" as="offset" />
            <Array as="points" />
          </mxGeometry>
        </mxCell>
        <mxCell id="107" value="" style="edgeStyle=none;dashed=1;startArrow=none;endArrow=classic;startSize=9;endSize=9;spacingTop=0;spacingBottom=0;spacingLeft=0;spacingRight=0;verticalAlign=middle;labelBackgroundColor=#ffffff;rounded=0;align=center;exitX=0.39166666666666666;exitY=1;exitDx=0;exitDy=0;exitPerimeter=0;entryX=0.875;entryY=0;entryDx=0;entryDy=0;entryPerimeter=0;" parent="1" source="28" target="68" edge="1">
          <mxGeometry relative="1" as="geometry">
            <mxPoint y="-1" as="offset" />
            <Array as="points" />
          </mxGeometry>
        </mxCell>
        <mxCell id="108" value="T" style="edgeStyle=none;startArrow=none;endArrow=classic;startSize=9;endSize=9;spacingTop=0;spacingBottom=0;spacingLeft=0;spacingRight=0;verticalAlign=middle;labelBackgroundColor=#ffffff;rounded=0;align=center;exitX=0.6205357142857143;exitY=1.0208333333333333;exitDx=0;exitDy=0;exitPerimeter=0;entryX=0.39444444444444443;entryY=0;entryDx=0;entryDy=0;entryPerimeter=0;" parent="1" source="25" target="67" edge="1">
          <mxGeometry relative="1" as="geometry">
            <mxPoint x="-1" y="-1" as="offset" />
            <Array as="points" />
          </mxGeometry>
        </mxCell>
        <mxCell id="109" style="edgeStyle=none;startArrow=none;endArrow=classic;startSize=9;endSize=9;spacingTop=0;spacingBottom=0;spacingLeft=0;spacingRight=0;verticalAlign=middle;labelBackgroundColor=#ffffff;rounded=0;exitX=0.39285714285714285;exitY=1.0208333333333333;exitDx=0;exitDy=0;exitPerimeter=0;entryX=0.6063829787234043;entryY=0;entryDx=0;entryDy=0;entryPerimeter=0;" parent="1" source="18" target="66" edge="1">
          <mxGeometry relative="1" as="geometry">
            <mxPoint x="-1" as="offset" />
            <Array as="points" />
          </mxGeometry>
        </mxCell>
        <mxCell id="eVtNR8atQoOk0DHgdyy4-169" value="TRE" style="edgeLabel;align=center;verticalAlign=middle;resizable=0;points=[];" parent="109" vertex="1" connectable="0">
          <mxGeometry x="0.1032" y="-3" relative="1" as="geometry">
            <mxPoint as="offset" />
          </mxGeometry>
        </mxCell>
        <mxCell id="110" value="E" style="edgeStyle=none;startArrow=none;endArrow=classic;startSize=9;endSize=9;spacingTop=0;spacingBottom=0;spacingLeft=0;spacingRight=0;verticalAlign=middle;labelBackgroundColor=#ffffff;rounded=0;align=center;exitX=0.6339285714285714;exitY=1.0208333333333333;exitDx=0;exitDy=0;exitPerimeter=0;entryX=0.09090909090909091;entryY=0.18181818181818182;entryDx=0;entryDy=0;entryPerimeter=0;" parent="1" source="24" target="51" edge="1">
          <mxGeometry relative="1" as="geometry">
            <mxPoint as="offset" />
            <Array as="points" />
          </mxGeometry>
        </mxCell>
        <mxCell id="111" value="SRIE" style="edgeStyle=none;startArrow=none;endArrow=classic;startSize=9;endSize=9;spacingTop=0;spacingBottom=0;spacingLeft=0;spacingRight=0;verticalAlign=middle;labelBackgroundColor=#ffffff;rounded=0;align=center;exitX=0.5357142857142857;exitY=1.0208333333333333;exitDx=0;exitDy=0;exitPerimeter=0;entryX=0.3333333333333333;entryY=0;entryDx=0;entryDy=0;entryPerimeter=0;" parent="1" source="25" target="49" edge="1">
          <mxGeometry relative="1" as="geometry">
            <mxPoint as="offset" />
            <Array as="points" />
          </mxGeometry>
        </mxCell>
        <mxCell id="112" value="RI" style="edgeStyle=none;startArrow=none;endArrow=classic;startSize=9;endSize=9;spacingTop=0;spacingBottom=0;spacingLeft=0;spacingRight=0;verticalAlign=middle;labelBackgroundColor=#ffffff;rounded=0;align=center;exitX=0.5044642857142857;exitY=1.0208333333333333;exitDx=0;exitDy=0;exitPerimeter=0;entryX=0.48484848484848486;entryY=0;entryDx=0;entryDy=0;entryPerimeter=0;" parent="1" source="24" target="48" edge="1">
          <mxGeometry relative="1" as="geometry">
            <mxPoint x="8" y="-1" as="offset" />
            <Array as="points" />
          </mxGeometry>
        </mxCell>
        <mxCell id="113" style="edgeStyle=none;startArrow=none;endArrow=classic;startSize=9;endSize=9;spacingTop=0;spacingBottom=0;spacingLeft=0;spacingRight=0;verticalAlign=middle;labelBackgroundColor=#ffffff;rounded=0;entryX=0.03888888888888889;entryY=0;entryDx=0;entryDy=0;entryPerimeter=0;jumpStyle=arc;" parent="1" source="7" target="5" edge="1">
          <mxGeometry relative="1" as="geometry">
            <mxPoint x="-1" y="-1" as="offset" />
            <Array as="points">
              <mxPoint x="3073.29" y="313.74" />
            </Array>
          </mxGeometry>
        </mxCell>
        <mxCell id="114" style="edgeStyle=none;startArrow=none;endArrow=classic;startSize=9;endSize=9;spacingTop=0;spacingBottom=0;spacingLeft=0;spacingRight=0;verticalAlign=middle;labelBackgroundColor=#ffffff;rounded=0;entryX=0;entryY=0.14285714285714285;entryDx=0;entryDy=0;entryPerimeter=0;jumpStyle=arc;" parent="1" source="53" target="46" edge="1">
          <mxGeometry relative="1" as="geometry">
            <mxPoint x="-1" y="-1" as="offset" />
            <Array as="points">
              <mxPoint x="2172.83" y="212.33" />
              <mxPoint x="2249.44" y="225.25" />
              <mxPoint x="2407.48" y="251.91" />
              <mxPoint x="2505.66" y="268.47" />
            </Array>
          </mxGeometry>
        </mxCell>
        <mxCell id="115" style="edgeStyle=none;startArrow=none;endArrow=classic;startSize=9;endSize=9;spacingTop=0;spacingBottom=0;spacingLeft=0;spacingRight=0;verticalAlign=middle;labelBackgroundColor=#ffffff;rounded=0;exitX=0.5902777777777778;exitY=1;exitDx=0;exitDy=0;exitPerimeter=0;entryX=0.4166666666666667;entryY=0;entryDx=0;entryDy=0;entryPerimeter=0;" parent="1" source="46" target="43" edge="1">
          <mxGeometry relative="1" as="geometry">
            <mxPoint x="-1" y="-1" as="offset" />
            <Array as="points" />
          </mxGeometry>
        </mxCell>
        <mxCell id="116" style="edgeStyle=none;startArrow=none;endArrow=classic;startSize=9;endSize=9;spacingTop=0;spacingBottom=0;spacingLeft=0;spacingRight=0;verticalAlign=middle;labelBackgroundColor=#ffffff;rounded=0;exitX=0.3541666666666667;exitY=1;exitDx=0;exitDy=0;exitPerimeter=0;entryX=0.6458333333333334;entryY=0;entryDx=0;entryDy=0;entryPerimeter=0;" parent="1" source="46" target="42" edge="1">
          <mxGeometry relative="1" as="geometry">
            <mxPoint y="-1" as="offset" />
            <Array as="points" />
          </mxGeometry>
        </mxCell>
        <mxCell id="117" style="edgeStyle=none;startArrow=none;endArrow=classic;startSize=9;endSize=9;spacingTop=0;spacingBottom=0;spacingLeft=0;spacingRight=0;verticalAlign=middle;labelBackgroundColor=#ffffff;rounded=0;exitX=0.5444444444444444;exitY=1.0208333333333333;exitDx=0;exitDy=0;exitPerimeter=0;entryX=0.46111111111111114;entryY=0;entryDx=0;entryDy=0;entryPerimeter=0;endFill=1;" parent="1" source="44" target="45" edge="1">
          <mxGeometry relative="1" as="geometry">
            <mxPoint as="offset" />
            <Array as="points" />
          </mxGeometry>
        </mxCell>
        <mxCell id="118" style="edgeStyle=none;startArrow=none;endArrow=classic;startSize=9;endSize=9;spacingTop=0;spacingBottom=0;spacingLeft=0;spacingRight=0;verticalAlign=middle;labelBackgroundColor=#ffffff;rounded=0;exitX=0.40555555555555556;exitY=1.0208333333333333;exitDx=0;exitDy=0;exitPerimeter=0;entryX=0.6;entryY=0;entryDx=0;entryDy=0;entryPerimeter=0;" parent="1" source="44" target="5" edge="1">
          <mxGeometry relative="1" as="geometry">
            <mxPoint y="-1" as="offset" />
            <Array as="points" />
          </mxGeometry>
        </mxCell>
        <mxCell id="120" value="" style="edgeStyle=none;startArrow=none;endArrow=classic;startSize=9;endSize=9;spacingTop=0;spacingBottom=0;spacingLeft=0;spacingRight=0;verticalAlign=middle;labelBackgroundColor=#ffffff;rounded=0;align=center;exitX=0.37222222222222223;exitY=1.0208333333333333;exitDx=0;exitDy=0;exitPerimeter=0;entryX=0.6180555555555556;entryY=0;entryDx=0;entryDy=0;entryPerimeter=0;" parent="1" source="5" target="43" edge="1">
          <mxGeometry relative="1" as="geometry">
            <mxPoint y="-1" as="offset" />
            <Array as="points" />
          </mxGeometry>
        </mxCell>
        <mxCell id="121" value="" style="edgeStyle=none;startArrow=none;endArrow=classic;startSize=9;endSize=9;spacingTop=0;spacingBottom=0;spacingLeft=0;spacingRight=0;verticalAlign=middle;labelBackgroundColor=#ffffff;rounded=0;align=center;exitX=0.3958333333333333;exitY=1;exitDx=0;exitDy=0;exitPerimeter=0;entryX=0.6111111111111112;entryY=0;entryDx=0;entryDy=0;entryPerimeter=0;" parent="1" source="43" target="41" edge="1">
          <mxGeometry relative="1" as="geometry">
            <mxPoint x="-1" as="offset" />
            <Array as="points" />
          </mxGeometry>
        </mxCell>
        <mxCell id="eVtNR8atQoOk0DHgdyy4-195" value="TID" style="edgeLabel;align=center;verticalAlign=middle;resizable=0;points=[];" parent="121" vertex="1" connectable="0">
          <mxGeometry x="-0.2807" y="2" relative="1" as="geometry">
            <mxPoint y="-1" as="offset" />
          </mxGeometry>
        </mxCell>
        <mxCell id="122" style="edgeStyle=none;startArrow=none;endArrow=classic;startSize=9;endSize=9;spacingTop=0;spacingBottom=0;spacingLeft=0;spacingRight=0;verticalAlign=middle;labelBackgroundColor=#ffffff;rounded=0;exitX=0.5486111111111112;exitY=1;exitDx=0;exitDy=0;exitPerimeter=0;entryX=0.4583333333333333;entryY=0;entryDx=0;entryDy=0;entryPerimeter=0;" parent="1" source="42" target="41" edge="1">
          <mxGeometry relative="1" as="geometry">
            <mxPoint x="-1" y="-1" as="offset" />
            <Array as="points" />
          </mxGeometry>
        </mxCell>
        <mxCell id="eVtNR8atQoOk0DHgdyy4-193" value="TD" style="edgeLabel;align=center;verticalAlign=middle;resizable=0;points=[];" parent="122" vertex="1" connectable="0">
          <mxGeometry x="-0.383" y="2" relative="1" as="geometry">
            <mxPoint as="offset" />
          </mxGeometry>
        </mxCell>
        <mxCell id="123" value="" style="edgeStyle=none;startArrow=none;endArrow=classic;startSize=9;endSize=9;spacingTop=0;spacingBottom=0;spacingLeft=0;spacingRight=0;verticalAlign=middle;labelBackgroundColor=#ffffff;rounded=0;align=center;exitX=0.5625;exitY=1.0208333333333333;exitDx=0;exitDy=0;exitPerimeter=0;entryX=0.425;entryY=0;entryDx=0;entryDy=0;entryPerimeter=0;" parent="1" source="26" target="34" edge="1">
          <mxGeometry relative="1" as="geometry">
            <mxPoint x="-1" y="-1" as="offset" />
            <Array as="points" />
          </mxGeometry>
        </mxCell>
        <mxCell id="eVtNR8atQoOk0DHgdyy4-187" value="D" style="edgeLabel;align=center;verticalAlign=middle;resizable=0;points=[];" parent="123" vertex="1" connectable="0">
          <mxGeometry x="0.1584" relative="1" as="geometry">
            <mxPoint as="offset" />
          </mxGeometry>
        </mxCell>
        <mxCell id="124" style="edgeStyle=none;startArrow=none;endArrow=classic;startSize=9;endSize=9;spacingTop=0;spacingBottom=0;spacingLeft=0;spacingRight=0;verticalAlign=middle;labelBackgroundColor=#ffffff;rounded=0;exitX=0.276;exitY=0.999;exitDx=0;exitDy=0;exitPerimeter=0;entryX=0;entryY=0.5;entryDx=0;entryDy=0;" parent="1" source="9" target="33" edge="1">
          <mxGeometry relative="1" as="geometry">
            <mxPoint x="-5" as="offset" />
            <Array as="points">
              <mxPoint x="739.96" y="870" />
            </Array>
            <mxPoint x="690" y="660" as="targetPoint" />
          </mxGeometry>
        </mxCell>
        <mxCell id="125" style="edgeStyle=none;startArrow=none;endArrow=classic;startSize=9;endSize=9;spacingTop=0;spacingBottom=0;spacingLeft=0;spacingRight=0;verticalAlign=middle;labelBackgroundColor=#ffffff;rounded=0;exitX=0.275;exitY=1;exitDx=0;exitDy=0;exitPerimeter=0;entryX=0;entryY=0.5142857142857142;entryDx=0;entryDy=0;entryPerimeter=0;" parent="1" source="9" target="32" edge="1">
          <mxGeometry relative="1" as="geometry">
            <mxPoint x="4" as="offset" />
            <Array as="points">
              <mxPoint x="740" y="770.91" />
            </Array>
          </mxGeometry>
        </mxCell>
        <mxCell id="126" style="edgeStyle=none;startArrow=none;endArrow=classic;startSize=9;endSize=9;spacingTop=0;spacingBottom=0;spacingLeft=0;spacingRight=0;verticalAlign=middle;labelBackgroundColor=#ffffff;rounded=0;exitX=0.275;exitY=1;exitDx=0;exitDy=0;exitPerimeter=0;entryX=0;entryY=0.4857142857142857;entryDx=0;entryDy=0;entryPerimeter=0;" parent="1" source="9" target="31" edge="1">
          <mxGeometry relative="1" as="geometry">
            <mxPoint x="4" as="offset" />
            <Array as="points">
              <mxPoint x="740" y="820.43" />
            </Array>
          </mxGeometry>
        </mxCell>
        <mxCell id="127" style="edgeStyle=none;startArrow=none;endArrow=classic;startSize=9;endSize=9;spacingTop=0;spacingBottom=0;spacingLeft=0;spacingRight=0;verticalAlign=middle;labelBackgroundColor=#ffffff;rounded=0;exitX=0.9111111111111111;exitY=1.0208333333333333;exitDx=0;exitDy=0;exitPerimeter=0;entryX=0.1625;entryY=0;entryDx=0;entryDy=0;entryPerimeter=0;jumpStyle=arc;" parent="1" source="5" target="29" edge="1">
          <mxGeometry relative="1" as="geometry">
            <mxPoint x="-1" y="-1" as="offset" />
            <Array as="points">
              <mxPoint x="3377.06" y="406.57" />
            </Array>
          </mxGeometry>
        </mxCell>
        <mxCell id="128" style="edgeStyle=none;startArrow=none;endArrow=classic;startSize=9;endSize=9;spacingTop=0;spacingBottom=0;spacingLeft=0;spacingRight=0;verticalAlign=middle;labelBackgroundColor=#ffffff;rounded=0;exitX=0.49107142857142855;exitY=1.0208333333333333;exitDx=0;exitDy=0;exitPerimeter=0;entryX=0.5089285714285714;entryY=0;entryDx=0;entryDy=0;entryPerimeter=0;" parent="1" source="23" target="25" edge="1">
          <mxGeometry relative="1" as="geometry">
            <mxPoint x="-8" y="-1" as="offset" />
            <Array as="points" />
          </mxGeometry>
        </mxCell>
        <mxCell id="129" value="D" style="edgeStyle=none;startArrow=none;endArrow=classic;startSize=9;endSize=9;spacingTop=0;spacingBottom=0;spacingLeft=0;spacingRight=0;verticalAlign=middle;labelBackgroundColor=#ffffff;rounded=0;align=center;exitX=0.4642857142857143;exitY=1.0208333333333333;exitDx=0;exitDy=0;exitPerimeter=0;entryX=0.55;entryY=0;entryDx=0;entryDy=0;entryPerimeter=0;" parent="1" source="25" target="52" edge="1">
          <mxGeometry relative="1" as="geometry">
            <mxPoint x="-1" as="offset" />
            <Array as="points" />
          </mxGeometry>
        </mxCell>
        <mxCell id="130" value="T" style="edgeStyle=none;startArrow=none;endArrow=classic;startSize=9;endSize=9;spacingTop=0;spacingBottom=0;spacingLeft=0;spacingRight=0;verticalAlign=middle;labelBackgroundColor=#ffffff;rounded=0;align=center;exitX=0.44642857142857145;exitY=1.0208333333333333;exitDx=0;exitDy=0;exitPerimeter=0;entryX=0.575;entryY=0;entryDx=0;entryDy=0;entryPerimeter=0;" parent="1" source="24" target="27" edge="1">
          <mxGeometry relative="1" as="geometry">
            <mxPoint x="-1" as="offset" />
            <Array as="points" />
          </mxGeometry>
        </mxCell>
        <mxCell id="131" value="D" style="edgeStyle=none;startArrow=none;endArrow=classic;startSize=9;endSize=9;spacingTop=0;spacingBottom=0;spacingLeft=0;spacingRight=0;verticalAlign=middle;labelBackgroundColor=#ffffff;rounded=0;align=center;exitX=0.5669642857142857;exitY=1.0208333333333333;exitDx=0;exitDy=0;exitPerimeter=0;entryX=0.4083333333333333;entryY=0;entryDx=0;entryDy=0;entryPerimeter=0;" parent="1" source="24" target="28" edge="1">
          <mxGeometry relative="1" as="geometry">
            <mxPoint x="-1" y="-1" as="offset" />
            <Array as="points" />
          </mxGeometry>
        </mxCell>
        <mxCell id="132" style="edgeStyle=none;startArrow=none;endArrow=classic;startSize=9;endSize=9;spacingTop=0;spacingBottom=0;spacingLeft=0;spacingRight=0;verticalAlign=middle;labelBackgroundColor=#ffffff;rounded=0;exitX=0.78125;exitY=1.0208333333333333;exitDx=0;exitDy=0;exitPerimeter=0;entryX=0.21875;entryY=0;entryDx=0;entryDy=0;entryPerimeter=0;" parent="1" source="23" target="26" edge="1">
          <mxGeometry relative="1" as="geometry">
            <mxPoint as="offset" />
            <Array as="points" />
          </mxGeometry>
        </mxCell>
        <mxCell id="133" style="edgeStyle=none;startArrow=none;endArrow=classic;startSize=9;endSize=9;spacingTop=0;spacingBottom=0;spacingLeft=0;spacingRight=0;verticalAlign=middle;labelBackgroundColor=#ffffff;rounded=0;exitX=0.12946428571428573;exitY=1.0208333333333333;exitDx=0;exitDy=0;exitPerimeter=0;entryX=0.875;entryY=0;entryDx=0;entryDy=0;entryPerimeter=0;" parent="1" source="23" target="24" edge="1">
          <mxGeometry relative="1" as="geometry">
            <mxPoint x="-1" as="offset" />
            <Array as="points" />
          </mxGeometry>
        </mxCell>
        <mxCell id="134" style="edgeStyle=none;startArrow=none;endArrow=classic;startSize=9;endSize=9;spacingTop=0;spacingBottom=0;spacingLeft=0;spacingRight=0;verticalAlign=middle;labelBackgroundColor=#ffffff;rounded=0;entryX=0.3;entryY=0;entryDx=0;entryDy=0;entryPerimeter=0;" parent="1" source="8" target="9" edge="1">
          <mxGeometry relative="1" as="geometry">
            <mxPoint x="-1" y="-1" as="offset" />
            <Array as="points" />
          </mxGeometry>
        </mxCell>
        <mxCell id="eVtNR8atQoOk0DHgdyy4-161" value="T" style="edgeLabel;align=center;verticalAlign=middle;resizable=0;points=[];" parent="134" vertex="1" connectable="0">
          <mxGeometry x="0.213" relative="1" as="geometry">
            <mxPoint as="offset" />
          </mxGeometry>
        </mxCell>
        <mxCell id="135" style="edgeStyle=none;startArrow=none;endArrow=classic;startSize=9;endSize=9;spacingTop=0;spacingBottom=0;spacingLeft=0;spacingRight=0;verticalAlign=middle;labelBackgroundColor=#FFFFFF;rounded=0;entryX=1;entryY=0.0625;entryDx=0;entryDy=0;entryPerimeter=0;" parent="1" source="8" target="10" edge="1">
          <mxGeometry relative="1" as="geometry">
            <mxPoint y="-1" as="offset" />
            <Array as="points" />
          </mxGeometry>
        </mxCell>
        <mxCell id="eVtNR8atQoOk0DHgdyy4-155" value="T" style="edgeLabel;align=center;verticalAlign=middle;resizable=0;points=[];" parent="135" vertex="1" connectable="0">
          <mxGeometry x="0.5519" y="-1" relative="1" as="geometry">
            <mxPoint as="offset" />
          </mxGeometry>
        </mxCell>
        <mxCell id="138" style="edgeStyle=none;startArrow=none;endArrow=classic;startSize=9;endSize=9;spacingTop=0;spacingBottom=0;spacingLeft=0;spacingRight=0;verticalAlign=middle;labelBackgroundColor=#ffffff;rounded=0;entryX=0.5;entryY=0;entryDx=0;entryDy=0;" parent="1" source="8" target="13" edge="1">
          <mxGeometry relative="1" as="geometry">
            <mxPoint x="-1" y="-1" as="offset" />
            <Array as="points" />
            <mxPoint x="636" y="570" as="sourcePoint" />
          </mxGeometry>
        </mxCell>
        <mxCell id="eVtNR8atQoOk0DHgdyy4-159" value="D" style="edgeLabel;align=center;verticalAlign=middle;resizable=0;points=[];" parent="138" vertex="1" connectable="0">
          <mxGeometry x="-0.3556" y="-2" relative="1" as="geometry">
            <mxPoint as="offset" />
          </mxGeometry>
        </mxCell>
        <mxCell id="140" style="edgeStyle=none;startArrow=none;endArrow=classic;startSize=9;endSize=9;spacingTop=0;spacingBottom=0;spacingLeft=0;spacingRight=0;verticalAlign=middle;labelBackgroundColor=#ffffff;rounded=0;exitX=0.48660714285714285;exitY=1.0208333333333333;exitDx=0;exitDy=0;exitPerimeter=0;entryX=0.5178571428571429;entryY=0;entryDx=0;entryDy=0;entryPerimeter=0;" parent="1" source="4" target="18" edge="1">
          <mxGeometry relative="1" as="geometry">
            <mxPoint x="-6" as="offset" />
            <Array as="points" />
          </mxGeometry>
        </mxCell>
        <mxCell id="141" style="edgeStyle=none;startArrow=none;endArrow=classic;startSize=9;endSize=9;spacingTop=0;spacingBottom=0;spacingLeft=0;spacingRight=0;verticalAlign=middle;labelBackgroundColor=#ffffff;rounded=0;exitX=0.5848214285714286;exitY=1.0208333333333333;exitDx=0;exitDy=0;exitPerimeter=0;entryX=0.43125;entryY=0;entryDx=0;entryDy=0;entryPerimeter=0;" parent="1" source="18" target="16" edge="1">
          <mxGeometry relative="1" as="geometry">
            <mxPoint as="offset" />
            <Array as="points" />
          </mxGeometry>
        </mxCell>
        <mxCell id="eVtNR8atQoOk0DHgdyy4-183" value="T" style="edgeLabel;align=center;verticalAlign=middle;resizable=0;points=[];" parent="141" vertex="1" connectable="0">
          <mxGeometry x="0.2602" y="2" relative="1" as="geometry">
            <mxPoint as="offset" />
          </mxGeometry>
        </mxCell>
        <mxCell id="142" style="edgeStyle=none;startArrow=none;endArrow=classic;startSize=9;endSize=9;spacingTop=0;spacingBottom=0;spacingLeft=0;spacingRight=0;verticalAlign=middle;labelBackgroundColor=#ffffff;rounded=0;exitX=0.09375;exitY=1.0208333333333333;exitDx=0;exitDy=0;exitPerimeter=0;entryX=0.90625;entryY=0;entryDx=0;entryDy=0;entryPerimeter=0;" parent="1" source="4" target="15" edge="1">
          <mxGeometry relative="1" as="geometry">
            <mxPoint y="-1" as="offset" />
            <Array as="points" />
          </mxGeometry>
        </mxCell>
        <mxCell id="143" style="edgeStyle=none;startArrow=none;endArrow=classic;startSize=9;endSize=9;spacingTop=0;spacingBottom=0;spacingLeft=0;spacingRight=0;verticalAlign=middle;labelBackgroundColor=#ffffff;rounded=0;exitX=0.7366071428571429;exitY=1.0208333333333333;exitDx=0;exitDy=0;exitPerimeter=0;entryX=0.26339285714285715;entryY=0;entryDx=0;entryDy=0;entryPerimeter=0;" parent="1" source="4" target="17" edge="1">
          <mxGeometry relative="1" as="geometry">
            <mxPoint as="offset" />
            <Array as="points" />
          </mxGeometry>
        </mxCell>
        <mxCell id="144" style="edgeStyle=none;startArrow=none;endArrow=classic;startSize=9;endSize=9;spacingTop=0;spacingBottom=0;spacingLeft=0;spacingRight=0;verticalAlign=middle;labelBackgroundColor=#ffffff;rounded=0;" parent="1" source="8" target="19" edge="1">
          <mxGeometry relative="1" as="geometry">
            <mxPoint x="-1" as="offset" />
            <Array as="points" />
            <mxPoint x="470" y="590" as="sourcePoint" />
          </mxGeometry>
        </mxCell>
        <mxCell id="eVtNR8atQoOk0DHgdyy4-156" value="S" style="edgeLabel;align=center;verticalAlign=middle;resizable=0;points=[];" parent="144" vertex="1" connectable="0">
          <mxGeometry x="-0.4139" relative="1" as="geometry">
            <mxPoint as="offset" />
          </mxGeometry>
        </mxCell>
        <mxCell id="145" style="edgeStyle=none;startArrow=none;endArrow=classic;startSize=9;endSize=9;spacingTop=0;spacingBottom=0;spacingLeft=0;spacingRight=0;verticalAlign=middle;labelBackgroundColor=#ffffff;rounded=0;entryX=0.7142857142857143;entryY=0;entryDx=0;entryDy=0;entryPerimeter=0;" parent="1" source="53" target="4" edge="1">
          <mxGeometry relative="1" as="geometry">
            <mxPoint y="-1" as="offset" />
            <Array as="points" />
            <mxPoint x="1860" y="180" as="sourcePoint" />
          </mxGeometry>
        </mxCell>
        <mxCell id="146" style="edgeStyle=none;startArrow=none;endArrow=classic;startSize=9;endSize=9;spacingTop=0;spacingBottom=0;spacingLeft=0;spacingRight=0;verticalAlign=middle;labelBackgroundColor=#ffffff;rounded=0;exitX=0.5944444444444444;exitY=1.0208333333333333;exitDx=0;exitDy=0;exitPerimeter=0;entryX=0.43125;entryY=0;entryDx=0;entryDy=0;entryPerimeter=0;" parent="1" source="5" target="20" edge="1">
          <mxGeometry relative="1" as="geometry">
            <mxPoint x="-1" y="-1" as="offset" />
            <Array as="points" />
          </mxGeometry>
        </mxCell>
        <mxCell id="147" value="SI" style="edgeStyle=none;startArrow=none;endArrow=classic;startSize=9;endSize=9;spacingTop=0;spacingBottom=0;spacingLeft=0;spacingRight=0;verticalAlign=middle;labelBackgroundColor=#ffffff;rounded=0;align=center;exitX=0.5375;exitY=1;exitDx=0;exitDy=0;exitPerimeter=0;entryX=0.4513888888888889;entryY=0;entryDx=0;entryDy=0;entryPerimeter=0;" parent="1" source="20" target="21" edge="1">
          <mxGeometry relative="1" as="geometry">
            <mxPoint x="-1" y="-1" as="offset" />
            <Array as="points" />
          </mxGeometry>
        </mxCell>
        <mxCell id="148" value="SI" style="edgeStyle=none;startArrow=none;endArrow=classic;startSize=9;endSize=9;spacingTop=0;spacingBottom=0;spacingLeft=0;spacingRight=0;verticalAlign=middle;labelBackgroundColor=#ffffff;rounded=0;align=center;exitX=0.7125;exitY=1;exitDx=0;exitDy=0;exitPerimeter=0;entryX=0.2708333333333333;entryY=0;entryDx=0;entryDy=0;entryPerimeter=0;" parent="1" source="20" target="22" edge="1">
          <mxGeometry relative="1" as="geometry">
            <mxPoint as="offset" />
            <Array as="points" />
          </mxGeometry>
        </mxCell>
        <mxCell id="149" style="edgeStyle=none;startArrow=none;endArrow=classic;startSize=9;endSize=9;spacingTop=0;spacingBottom=0;spacingLeft=0;spacingRight=0;verticalAlign=middle;labelBackgroundColor=#ffffff;rounded=0;entryX=0.9732142857142857;entryY=0;entryDx=0;entryDy=0;entryPerimeter=0;jumpStyle=arc;" parent="1" source="6" target="4" edge="1">
          <mxGeometry relative="1" as="geometry">
            <mxPoint x="-1" as="offset" />
            <Array as="points">
              <mxPoint x="2092.94" y="232.6" />
            </Array>
          </mxGeometry>
        </mxCell>
        <mxCell id="150" style="edgeStyle=none;startArrow=none;endArrow=classic;startSize=9;endSize=9;spacingTop=0;spacingBottom=0;spacingLeft=0;spacingRight=0;verticalAlign=middle;labelBackgroundColor=#ffffff;rounded=0;entryX=1;entryY=0.08333333333333333;entryDx=0;entryDy=0;entryPerimeter=0;jumpStyle=arc;" parent="1" source="7" target="4" edge="1">
          <mxGeometry relative="1" as="geometry">
            <mxPoint x="-1" as="offset" />
            <Array as="points">
              <mxPoint x="2392.76" y="200.28" />
              <mxPoint x="2136.19" y="248.18" />
            </Array>
          </mxGeometry>
        </mxCell>
        <mxCell id="151" style="edgeStyle=none;startArrow=none;endArrow=classic;startSize=9;endSize=9;spacingTop=0;spacingBottom=0;spacingLeft=0;spacingRight=0;verticalAlign=middle;labelBackgroundColor=#ffffff;rounded=0;entryX=0.20089285714285715;entryY=0;entryDx=0;entryDy=0;entryPerimeter=0;" parent="1" source="53" target="23" edge="1">
          <mxGeometry relative="1" as="geometry">
            <mxPoint as="offset" />
            <Array as="points" />
          </mxGeometry>
        </mxCell>
        <mxCell id="152" style="edgeStyle=none;startArrow=none;endArrow=classic;startSize=9;endSize=9;spacingTop=0;spacingBottom=0;spacingLeft=0;spacingRight=0;verticalAlign=middle;labelBackgroundColor=#ffffff;rounded=0;entryX=0.5625;entryY=0;entryDx=0;entryDy=0;entryPerimeter=0;" parent="1" source="7" target="23" edge="1">
          <mxGeometry relative="1" as="geometry">
            <mxPoint y="-1" as="offset" />
            <Array as="points" />
          </mxGeometry>
        </mxCell>
        <mxCell id="153" style="edgeStyle=none;startArrow=none;endArrow=classic;startSize=9;endSize=9;spacingTop=0;spacingBottom=0;spacingLeft=0;spacingRight=0;verticalAlign=middle;labelBackgroundColor=#ffffff;rounded=0;entryX=0.45535714285714285;entryY=0;entryDx=0;entryDy=0;entryPerimeter=0;" parent="1" source="6" target="23" edge="1">
          <mxGeometry relative="1" as="geometry">
            <mxPoint x="-1" y="-1" as="offset" />
            <Array as="points" />
          </mxGeometry>
        </mxCell>
        <mxCell id="eVtNR8atQoOk0DHgdyy4-153" value="KI-Modell täuschen durch Adversarial Attacks" style="verticalAlign=middle;align=center;fillColor=#d7e3bf;gradientColor=none;labelBackgroundColor=none;rounded=0;whiteSpace=wrap;" parent="1" vertex="1">
          <mxGeometry x="1766.5" y="720" width="176" height="35" as="geometry" />
        </mxCell>
        <mxCell id="eVtNR8atQoOk0DHgdyy4-154" style="edgeStyle=none;startArrow=none;endArrow=classic;startSize=9;endSize=9;spacingTop=0;spacingBottom=0;spacingLeft=0;spacingRight=0;verticalAlign=middle;labelBackgroundColor=#ffffff;rounded=0;entryX=0.293;entryY=0;entryDx=0;entryDy=0;entryPerimeter=0;" parent="1" source="16" target="eVtNR8atQoOk0DHgdyy4-153" edge="1">
          <mxGeometry relative="1" as="geometry">
            <mxPoint x="-1" y="-1" as="offset" />
            <Array as="points" />
            <mxPoint x="1647" y="650" as="sourcePoint" />
            <mxPoint x="1712" y="734" as="targetPoint" />
          </mxGeometry>
        </mxCell>
        <mxCell id="eVtNR8atQoOk0DHgdyy4-179" value="T" style="edgeLabel;align=center;verticalAlign=middle;resizable=0;points=[];" parent="eVtNR8atQoOk0DHgdyy4-154" vertex="1" connectable="0">
          <mxGeometry x="0.179" y="3" relative="1" as="geometry">
            <mxPoint as="offset" />
          </mxGeometry>
        </mxCell>
        <mxCell id="eVtNR8atQoOk0DHgdyy4-163" value="STOP" style="verticalAlign=middle;align=center;fillColor=#ff0000;gradientColor=none;shape=stencil(jZLBDoIwDIafpldSugPhjPgeJAy3ODcypuLbu9kYEBPY7W/7dfnbDkQzqW6UQDgF767yqfugQJyASFslvQ5RgWhBNIPz8uLd3fYcj10ik7q5R3ph5r4Ki6pMXYQvzuAnOjNstF3BVBdU58L4Ay6tGfBiKtNGiTtG/kfcxb/FTDNb/GDQg31HsVxq0Mbwodf17WVjin+FaN8=);strokeColor=#000000;labelBackgroundColor=none;rounded=0;whiteSpace=wrap;" parent="1" vertex="1">
          <mxGeometry x="848" y="607" width="33" height="33" as="geometry" />
        </mxCell>
        <mxCell id="eVtNR8atQoOk0DHgdyy4-164" style="edgeStyle=none;startArrow=none;endArrow=classic;startSize=9;endSize=9;spacingTop=0;spacingBottom=0;spacingLeft=0;spacingRight=0;verticalAlign=middle;labelBackgroundColor=#ffffff;rounded=0;entryX=0.403;entryY=0.009;entryDx=0;entryDy=0;entryPerimeter=0;" parent="1" source="8" target="eVtNR8atQoOk0DHgdyy4-163" edge="1">
          <mxGeometry relative="1" as="geometry">
            <mxPoint x="-1" y="-1" as="offset" />
            <Array as="points" />
            <mxPoint x="588" y="502" as="sourcePoint" />
            <mxPoint x="753" y="620" as="targetPoint" />
          </mxGeometry>
        </mxCell>
        <mxCell id="eVtNR8atQoOk0DHgdyy4-165" value="RIE" style="edgeLabel;align=center;verticalAlign=middle;resizable=0;points=[];" parent="eVtNR8atQoOk0DHgdyy4-164" vertex="1" connectable="0">
          <mxGeometry x="0.213" relative="1" as="geometry">
            <mxPoint as="offset" />
          </mxGeometry>
        </mxCell>
        <mxCell id="eVtNR8atQoOk0DHgdyy4-170" value="STOP" style="verticalAlign=middle;align=center;fillColor=#ff0000;gradientColor=none;shape=stencil(jZLBDoIwDIafpldSugPhjPgeJAy3ODcypuLbu9kYEBPY7W/7dfnbDkQzqW6UQDgF767yqfugQJyASFslvQ5RgWhBNIPz8uLd3fYcj10ik7q5R3ph5r4Ki6pMXYQvzuAnOjNstF3BVBdU58L4Ay6tGfBiKtNGiTtG/kfcxb/FTDNb/GDQg31HsVxq0Mbwodf17WVjin+FaN8=);strokeColor=#000000;labelBackgroundColor=none;rounded=0;whiteSpace=wrap;" parent="1" vertex="1">
          <mxGeometry x="960" y="607" width="33" height="33" as="geometry" />
        </mxCell>
        <mxCell id="eVtNR8atQoOk0DHgdyy4-171" value="" style="edgeStyle=none;startArrow=none;endArrow=classic;startSize=9;endSize=9;spacingTop=0;spacingBottom=0;spacingLeft=0;spacingRight=0;verticalAlign=middle;labelBackgroundColor=#ffffff;rounded=0;align=center;exitX=0.15;exitY=1.038;exitDx=0;exitDy=0;exitPerimeter=0;entryX=0.52;entryY=0.025;entryDx=0;entryDy=0;entryPerimeter=0;" parent="1" source="15" target="eVtNR8atQoOk0DHgdyy4-170" edge="1">
          <mxGeometry relative="1" as="geometry">
            <mxPoint x="-1" as="offset" />
            <Array as="points" />
            <mxPoint x="1127.9999999999995" y="502" as="sourcePoint" />
            <mxPoint x="1098" y="620" as="targetPoint" />
          </mxGeometry>
        </mxCell>
        <mxCell id="eVtNR8atQoOk0DHgdyy4-172" value="SID" style="edgeLabel;align=center;verticalAlign=middle;resizable=0;points=[];" parent="eVtNR8atQoOk0DHgdyy4-171" vertex="1" connectable="0">
          <mxGeometry x="0.5473" y="-2" relative="1" as="geometry">
            <mxPoint as="offset" />
          </mxGeometry>
        </mxCell>
        <mxCell id="eVtNR8atQoOk0DHgdyy4-184" value="STOP" style="verticalAlign=middle;align=center;fillColor=#ff0000;gradientColor=none;shape=stencil(jZLBDoIwDIafpldSugPhjPgeJAy3ODcypuLbu9kYEBPY7W/7dfnbDkQzqW6UQDgF767yqfugQJyASFslvQ5RgWhBNIPz8uLd3fYcj10ik7q5R3ph5r4Ki6pMXYQvzuAnOjNstF3BVBdU58L4Ay6tGfBiKtNGiTtG/kfcxb/FTDNb/GDQg31HsVxq0Mbwodf17WVjin+FaN8=);strokeColor=#000000;labelBackgroundColor=none;rounded=0;whiteSpace=wrap;fontColor=#FFFFFF;" parent="1" vertex="1">
          <mxGeometry x="1483" y="600" width="33" height="33" as="geometry" />
        </mxCell>
        <mxCell id="eVtNR8atQoOk0DHgdyy4-185" style="edgeStyle=none;startArrow=none;endArrow=classic;startSize=9;endSize=9;spacingTop=0;spacingBottom=0;spacingLeft=0;spacingRight=0;verticalAlign=middle;labelBackgroundColor=#ffffff;rounded=0;exitX=0.508;exitY=1.043;exitDx=0;exitDy=0;exitPerimeter=0;entryX=0.463;entryY=-0.043;entryDx=0;entryDy=0;entryPerimeter=0;" parent="1" source="18" target="eVtNR8atQoOk0DHgdyy4-184" edge="1">
          <mxGeometry relative="1" as="geometry">
            <mxPoint as="offset" />
            <Array as="points" />
            <mxPoint x="1529" y="502" as="sourcePoint" />
            <mxPoint x="1626.0000000000005" y="625" as="targetPoint" />
          </mxGeometry>
        </mxCell>
        <mxCell id="eVtNR8atQoOk0DHgdyy4-186" value="SID" style="edgeLabel;align=center;verticalAlign=middle;resizable=0;points=[];" parent="eVtNR8atQoOk0DHgdyy4-185" vertex="1" connectable="0">
          <mxGeometry x="0.2602" y="2" relative="1" as="geometry">
            <mxPoint as="offset" />
          </mxGeometry>
        </mxCell>
        <mxCell id="eVtNR8atQoOk0DHgdyy4-188" value="STOP" style="verticalAlign=middle;align=center;fillColor=#ff0000;gradientColor=none;shape=stencil(jZLBDoIwDIafpldSugPhjPgeJAy3ODcypuLbu9kYEBPY7W/7dfnbDkQzqW6UQDgF767yqfugQJyASFslvQ5RgWhBNIPz8uLd3fYcj10ik7q5R3ph5r4Ki6pMXYQvzuAnOjNstF3BVBdU58L4Ay6tGfBiKtNGiTtG/kfcxb/FTDNb/GDQg31HsVxq0Mbwodf17WVjin+FaN8=);strokeColor=#000000;labelBackgroundColor=none;rounded=0;whiteSpace=wrap;fontColor=#FFFFFF;" parent="1" vertex="1">
          <mxGeometry x="2730" y="610" width="33" height="33" as="geometry" />
        </mxCell>
        <mxCell id="eVtNR8atQoOk0DHgdyy4-189" value="" style="edgeStyle=none;startArrow=none;endArrow=classic;startSize=9;endSize=9;spacingTop=0;spacingBottom=0;spacingLeft=0;spacingRight=0;verticalAlign=middle;labelBackgroundColor=#ffffff;rounded=0;align=center;exitX=0.44;exitY=1.038;exitDx=0;exitDy=0;exitPerimeter=0;" parent="1" source="26" target="eVtNR8atQoOk0DHgdyy4-188" edge="1">
          <mxGeometry relative="1" as="geometry">
            <mxPoint x="-1" y="-1" as="offset" />
            <Array as="points" />
            <mxPoint x="2751.9999999999995" y="502" as="sourcePoint" />
            <mxPoint x="2850.9999999999995" y="620" as="targetPoint" />
          </mxGeometry>
        </mxCell>
        <mxCell id="eVtNR8atQoOk0DHgdyy4-190" value="STRIE" style="edgeLabel;align=center;verticalAlign=middle;resizable=0;points=[];" parent="eVtNR8atQoOk0DHgdyy4-189" vertex="1" connectable="0">
          <mxGeometry x="0.1584" relative="1" as="geometry">
            <mxPoint as="offset" />
          </mxGeometry>
        </mxCell>
        <mxCell id="eVtNR8atQoOk0DHgdyy4-199" value="STOP" style="verticalAlign=middle;align=center;fillColor=#ff0000;gradientColor=none;shape=stencil(jZLBDoIwDIafpldSugPhjPgeJAy3ODcypuLbu9kYEBPY7W/7dfnbDkQzqW6UQDgF767yqfugQJyASFslvQ5RgWhBNIPz8uLd3fYcj10ik7q5R3ph5r4Ki6pMXYQvzuAnOjNstF3BVBdU58L4Ay6tGfBiKtNGiTtG/kfcxb/FTDNb/GDQg31HsVxq0Mbwodf17WVjin+FaN8=);strokeColor=#000000;labelBackgroundColor=none;rounded=0;whiteSpace=wrap;fontColor=#FFFFFF;" parent="1" vertex="1">
          <mxGeometry x="3080" y="615" width="33" height="33" as="geometry" />
        </mxCell>
        <mxCell id="eVtNR8atQoOk0DHgdyy4-200" value="" style="edgeStyle=none;startArrow=none;endArrow=classic;startSize=9;endSize=9;spacingTop=0;spacingBottom=0;spacingLeft=0;spacingRight=0;verticalAlign=middle;labelBackgroundColor=#ffffff;rounded=0;align=center;exitX=0.436;exitY=0.955;exitDx=0;exitDy=0;exitPerimeter=0;entryX=0.533;entryY=0.009;entryDx=0;entryDy=0;entryPerimeter=0;" parent="1" source="43" target="eVtNR8atQoOk0DHgdyy4-199" edge="1">
          <mxGeometry relative="1" as="geometry">
            <mxPoint x="-1" as="offset" />
            <Array as="points" />
            <mxPoint x="3138.9999999999995" y="495" as="sourcePoint" />
            <mxPoint x="3030" y="620" as="targetPoint" />
          </mxGeometry>
        </mxCell>
        <mxCell id="eVtNR8atQoOk0DHgdyy4-201" value="RE" style="edgeLabel;align=center;verticalAlign=middle;resizable=0;points=[];" parent="eVtNR8atQoOk0DHgdyy4-200" vertex="1" connectable="0">
          <mxGeometry x="-0.2807" y="2" relative="1" as="geometry">
            <mxPoint x="-2" y="-2" as="offset" />
          </mxGeometry>
        </mxCell>
        <mxCell id="eVtNR8atQoOk0DHgdyy4-208" value="" style="edgeStyle=none;startArrow=none;endArrow=classic;startSize=9;endSize=9;spacingTop=0;spacingBottom=0;spacingLeft=0;spacingRight=0;verticalAlign=middle;labelBackgroundColor=#ffffff;rounded=0;align=center;exitX=0.771;exitY=0.984;exitDx=0;exitDy=0;exitPerimeter=0;entryX=0.325;entryY=-0.012;entryDx=0;entryDy=0;entryPerimeter=0;" parent="1" source="42" target="eVtNR8atQoOk0DHgdyy4-199" edge="1">
          <mxGeometry relative="1" as="geometry">
            <mxPoint x="-1" as="offset" />
            <Array as="points" />
            <mxPoint x="3144.784" y="493.42500000000007" as="sourcePoint" />
            <mxPoint x="3091" y="600" as="targetPoint" />
          </mxGeometry>
        </mxCell>
        <mxCell id="eVtNR8atQoOk0DHgdyy4-209" value="SRIE" style="edgeLabel;align=center;verticalAlign=middle;resizable=0;points=[];" parent="eVtNR8atQoOk0DHgdyy4-208" vertex="1" connectable="0">
          <mxGeometry x="-0.2807" y="2" relative="1" as="geometry">
            <mxPoint x="-2" y="-2" as="offset" />
          </mxGeometry>
        </mxCell>
        <mxCell id="eVtNR8atQoOk0DHgdyy4-210" value="SI" style="edgeStyle=none;startArrow=none;endArrow=classic;startSize=9;endSize=9;spacingTop=0;spacingBottom=0;spacingLeft=0;spacingRight=0;verticalAlign=middle;labelBackgroundColor=#ffffff;rounded=0;align=center;exitX=0.69;exitY=1.033;exitDx=0;exitDy=0;exitPerimeter=0;entryX=0.212;entryY=0.017;entryDx=0;entryDy=0;entryPerimeter=0;" parent="1" source="43" target="21" edge="1">
          <mxGeometry relative="1" as="geometry">
            <mxPoint x="-1" y="-1" as="offset" />
            <Array as="points" />
            <mxPoint x="3332" y="495" as="sourcePoint" />
            <mxPoint x="3375" y="618" as="targetPoint" />
          </mxGeometry>
        </mxCell>
        <mxCell id="eVtNR8atQoOk0DHgdyy4-211" value="SI" style="edgeStyle=none;startArrow=none;endArrow=classic;startSize=9;endSize=9;spacingTop=0;spacingBottom=0;spacingLeft=0;spacingRight=0;verticalAlign=middle;labelBackgroundColor=#ffffff;rounded=0;align=center;exitX=0.8;exitY=0.986;exitDx=0;exitDy=0;exitPerimeter=0;entryX=0.064;entryY=0.033;entryDx=0;entryDy=0;entryPerimeter=0;" parent="1" source="43" target="22" edge="1">
          <mxGeometry relative="1" as="geometry">
            <mxPoint x="-1" y="-1" as="offset" />
            <Array as="points" />
            <mxPoint x="3181.3600000000006" y="496.155" as="sourcePoint" />
            <mxPoint x="3340.5280000000002" y="618.6800000000001" as="targetPoint" />
          </mxGeometry>
        </mxCell>
        <mxCell id="pCnNo5EmcwS2ose940Cv-153" value="Angriffsziel&#xa;Reise- und Lebensmanagement" style="verticalAlign=middle;align=center;fillColor=#FFFFFF;gradientColor=none;labelBackgroundColor=none;rounded=0;whiteSpace=wrap;shape=trapezoid;size=0.07500000000000001;" parent="1" vertex="1">
          <mxGeometry x="2208" y="40" width="300" height="60" as="geometry" />
        </mxCell>
        <mxCell id="H8-0O90GaupJun0dLJcG-153" value="" style="shape=or;whiteSpace=wrap;rotation=-90;" parent="1" vertex="1">
          <mxGeometry x="307" y="550" width="30" height="40" as="geometry" />
        </mxCell>
        <mxCell id="H8-0O90GaupJun0dLJcG-154" value="" style="shape=or;whiteSpace=wrap;rotation=-90;" parent="1" vertex="1">
          <mxGeometry x="546" y="530" width="30" height="40" as="geometry" />
        </mxCell>
        <mxCell id="6" value="Finanzieller Schaden Einzelperson" style="verticalAlign=middle;align=center;fillColor=#FFFFFF;gradientColor=none;labelBackgroundColor=none;rounded=1;whiteSpace=wrap;" parent="1" vertex="1">
          <mxGeometry x="2286" y="143" width="180" height="48" as="geometry" />
        </mxCell>
      </root>
    </mxGraphModel>
  </diagram>
</mxfile>
